<svg width="32" height="32" viewBox="0 0 32 32" fill="none" xmlns="http://www.w3.org/2000/svg">
  <circle cx="16" cy="16" r="16" fill="#2775CA"/>
  <circle cx="16" cy="16" r="12" fill="#FFFFFF"/>
  <path d="M16 8C11.6 8 8 11.6 8 16C8 20.4 11.6 24 16 24C20.4 24 24 20.4 24 16C24 11.6 20.4 8 16 8ZM16 22C12.7 22 10 19.3 10 16C10 12.7 12.7 10 16 10C19.3 10 22 12.7 22 16C22 19.3 19.3 22 16 22Z" fill="#2775CA"/>
  <path d="M18.5 13.5C18.5 12.1 17.4 11 16 11C14.6 11 13.5 12.1 13.5 13.5H15C15 12.9 15.4 12.5 16 12.5C16.6 12.5 17 12.9 17 13.5C17 14.1 16.6 14.5 16 14.5H15V16H16C16.6 16 17 16.4 17 17C17 17.6 16.6 18 16 18C15.4 18 15 17.6 15 17H13.5C13.5 18.4 14.6 19.5 16 19.5C17.4 19.5 18.5 18.4 18.5 17C18.5 16.2 18.1 15.5 17.5 15.1C18.1 14.7 18.5 14 18.5 13.5Z" fill="#2775CA"/>
</svg>
