<svg width="32" height="32" viewBox="0 0 32 32" fill="none" xmlns="http://www.w3.org/2000/svg">
  <circle cx="16" cy="16" r="16" fill="#F7931A"/>
  <circle cx="16" cy="16" r="12" fill="#FFFFFF"/>
  <path d="M20.5 14.5C20.5 13.1 19.4 12 18 12H14V10H12V12H10V14H12V18H10V20H12V22H14V20H18C19.4 20 20.5 18.9 20.5 17.5C20.5 16.8 20.2 16.2 19.7 15.8C20.2 15.4 20.5 14.8 20.5 14.5ZM14 14H18C18.3 14 18.5 14.2 18.5 14.5C18.5 14.8 18.3 15 18 15H14V14ZM18 18H14V17H18C18.3 17 18.5 17.2 18.5 17.5C18.5 17.8 18.3 18 18 18Z" fill="#F7931A"/>
  <circle cx="12" cy="8" r="2" fill="#5DADE2" stroke="#FFFFFF" stroke-width="1"/>
  <circle cx="20" cy="8" r="2" fill="#5DADE2" stroke="#FFFFFF" stroke-width="1"/>
  <circle cx="24" cy="16" r="2" fill="#5DADE2" stroke="#FFFFFF" stroke-width="1"/>
  <circle cx="20" cy="24" r="2" fill="#5DADE2" stroke="#FFFFFF" stroke-width="1"/>
  <circle cx="12" cy="24" r="2" fill="#5DADE2" stroke="#FFFFFF" stroke-stroke-width="1"/>
  <circle cx="8" cy="16" r="2" fill="#5DADE2" stroke="#FFFFFF" stroke-width="1"/>
</svg>
