<svg width="32" height="32" viewBox="0 0 32 32" fill="none" xmlns="http://www.w3.org/2000/svg">
  <circle cx="16" cy="16" r="16" fill="#8247E5"/>
  <path d="M21.5 12.5L18.5 10.5C17.8 10.1 16.9 10.1 16.2 10.5L13.2 12.5C12.5 12.9 12 13.7 12 14.5V18.5C12 19.3 12.5 20.1 13.2 20.5L16.2 22.5C16.9 22.9 17.8 22.9 18.5 22.5L21.5 20.5C22.2 20.1 22.7 19.3 22.7 18.5V14.5C22.7 13.7 22.2 12.9 21.5 12.5Z" fill="#FFFFFF"/>
  <path d="M19.5 15L17.5 14C17.2 13.8 16.8 13.8 16.5 14L14.5 15C14.2 15.2 14 15.5 14 15.8V17.2C14 17.5 14.2 17.8 14.5 18L16.5 19C16.8 19.2 17.2 19.2 17.5 19L19.5 18C19.8 17.8 20 17.5 20 17.2V15.8C20 15.5 19.8 15.2 19.5 15Z" fill="#8247E5"/>
</svg>
